#N canvas 259 53 421 494 10;
#X msg 225 90 read -resize \$2 \$1;
#X obj 225 110 soundfiler;
#X obj 130 204 phasor~;
#X obj 130 185 sig~;
#X obj 183 373 dac~;
#X obj 225 -11 t b b;
#X obj 328 25 symbol \$2;
#X obj 225 70 pack symbol symbol;
#X obj 227 -29 bng 15 250 50 0 empty load_samples load_samples 0 -8
1 10 -262144 -1 -1;
#X floatatom 225 130 5 0 0 1 filesize - -;
#X obj 225 203 sig~;
#X obj 187 220 *~;
#X msg 196 163 0;
#X floatatom 130 111 5 0 0 0 - - -;
#X obj 246 278 /;
#X msg 198 261 1;
#X obj 198 241 trigger 0 0;
#X obj 155 26 r \$0-freq;
#X obj 196 125 bng 15 250 50 0 empty empty empty 0 -6 0 8 -262144 -1
-1;
#X obj 11 74 delay;
#X msg 11 94 0;
#X obj 11 7 select one-shot looping;
#X obj 11 32 bng 15 250 50 0 empty empty empty 0 -6 0 8 -262144 -1
-1;
#X obj 100 -16 unpack s 0;
#X obj 130 47 float;
#X obj 77 32 bng 15 250 50 0 empty empty empty 0 -6 0 8 -262144 -1
-1;
#X obj 14 163 * 1000;
#X obj 14 142 r \$0-time;
#X obj 275 241 s \$0-time;
#X obj 246 299 s \$0-freq;
#X text 26 30 one-shot;
#X text 94 30 looping;
#X text 268 278 1/x;
#X obj 11 -83 cnv 40 400 40 empty empty Sample_Bank(_playSample) 50
20 1 16 -233017 -66577 0;
#X msg 25 54 stop;
#X obj 305 168 table \$1_table;
#X obj 187 327 tabread4~ \$1_table;
#X obj 225 24 symbol \$1_table;
#X obj 100 -35 r \$1_event;
#X obj 45 252 r \$1_event;
#X obj 18 295 select pitch;
#X obj 45 272 unpack s 0;
#X obj 87 330 f;
#X obj 18 315 bng 15 250 50 0 empty empty empty 0 -6 0 8 -262144 -1
-1;
#X obj 110 285 bng 15 250 50 0 empty load_samples load_samples 0 -6
1 8 -262144 -1 -1;
#X msg 110 303 1;
#X text 33 343 pitch;
#X obj 130 166 *;
#X obj 136 127 r \$0-pit;
#X obj 87 350 s \$0-pit;
#X obj 136 147 t b 0;
#X obj 73 163 select 0;
#X obj 73 142 r \$0-pit;
#X obj 73 206 /;
#X obj 73 184 t b 0;
#X obj 73 227 s \$0-del;
#X obj 64 53 r \$0-del;
#X text 11 226 delay time;
#X text 297 151 sample data table;
#X text 269 195 assume 11kHz;
#X obj 328 310 r \$0-vol;
#X obj 187 351 *~;
#X obj 155 7 s \$0-vol;
#X obj 328 334 sig~;
#X floatatom 144 368 5 0 0 0 - - -;
#X obj 146 342 env~;
#X obj 270 49 makefilename sfx/%s.wav;
#X obj 256 211 * 2.26757e-05;
#X connect 0 0 1 0;
#X connect 1 0 9 0;
#X connect 2 0 11 0;
#X connect 3 0 2 0;
#X connect 5 0 37 0;
#X connect 5 1 6 0;
#X connect 6 0 66 0;
#X connect 7 0 0 0;
#X connect 8 0 5 0;
#X connect 9 0 10 0;
#X connect 9 0 67 0;
#X connect 10 0 11 1;
#X connect 11 0 36 0;
#X connect 12 0 2 1;
#X connect 13 0 18 0;
#X connect 13 0 47 0;
#X connect 14 0 29 0;
#X connect 15 0 14 0;
#X connect 16 0 15 0;
#X connect 16 1 14 1;
#X connect 17 0 24 1;
#X connect 18 0 12 0;
#X connect 19 0 20 0;
#X connect 20 0 13 0;
#X connect 21 0 22 0;
#X connect 21 1 25 0;
#X connect 22 0 19 0;
#X connect 22 0 24 0;
#X connect 23 0 21 0;
#X connect 23 1 62 0;
#X connect 24 0 13 0;
#X connect 25 0 24 0;
#X connect 25 0 34 0;
#X connect 26 0 53 0;
#X connect 27 0 26 0;
#X connect 34 0 19 0;
#X connect 36 0 61 0;
#X connect 36 0 65 0;
#X connect 37 0 7 0;
#X connect 38 0 23 0;
#X connect 39 0 41 0;
#X connect 40 0 43 0;
#X connect 41 0 40 0;
#X connect 41 1 42 1;
#X connect 42 0 49 0;
#X connect 43 0 42 0;
#X connect 44 0 45 0;
#X connect 45 0 42 1;
#X connect 45 0 42 0;
#X connect 47 0 3 0;
#X connect 48 0 50 0;
#X connect 50 0 47 0;
#X connect 50 1 47 1;
#X connect 51 1 54 0;
#X connect 52 0 51 0;
#X connect 53 0 55 0;
#X connect 54 0 53 0;
#X connect 54 1 53 1;
#X connect 56 0 19 1;
#X connect 60 0 63 0;
#X connect 61 0 4 0;
#X connect 61 0 4 1;
#X connect 63 0 61 1;
#X connect 65 0 64 0;
#X connect 66 0 7 1;
#X connect 67 0 16 0;
#X connect 67 0 28 0;
