#N canvas 345 102 886 487 10;
#X obj 509 -4 dumpOSC 57110;
#X obj 131 8 loadbang;
#X obj 131 149 textfile;
#X obj 131 189 unpack 0 s s s 0 0 0 0 0;
#X obj 97 248 int;
#X obj 97 288 pack 0 0 0 s s s 0;
#N canvas 316 152 502 576 SampleSubPatch 0;
#X obj 0 0 _playSample one 786_Steven_Phillips_01 frontend 0;
#X obj 0 40 _playSample two 787_Steven_Phillips_02 frontend 2;
#X obj 0 60 _playSample three 788_Steven_Phillips_03 frontend 3;
#X obj 0 80 _playSample four 789_Steven_Phillips_04 frontend 4;
#X obj 0 100 _playSample move_1 13254__ianhall__splash frontend 5;
#X obj 0 120 _playSample move_2 16243__ltibbits__china_oriental_trash_18_high_vol
frontend 6;
#X obj 0 140 _playSample hip_bop_1 38156__JCambs1990__#29520A92 frontend
7;
#X obj 0 160 _playSample hip_bop_2 38156__JCambs1990__#29520A9 frontend
8;
#X obj 0 180 _playSample h1 9361__lancelottjone#29791 frontend 9;
#X obj 0 200 _playSample h2 9361__lancelottjone#29792 frontend 10;
#X obj 0 220 _playSample h3 9361__lancelottjone#29793 frontend 11;
#X obj 0 240 _playSample h4 9361__lancelottjone#29794 frontend 12;
#X obj 0 260 _playSample h5 9361__lancelottjone#29795 frontend 13;
#X obj 0 280 _playSample h6 9361__lancelottjone#29796 frontend 14;
#X obj 0 300 _playSample h7 9361__lancelottjone#29797 frontend 15;
#X obj 0 0 _playSample 0 0 0 0;
#X obj 0 0 _playSample 0 0 0 0;
#X obj 0 0 _playSample one 786_Steven_Phillips_01 frontend 0;
#X obj 0 40 _playSample two 787_Steven_Phillips_02 frontend 2;
#X obj 0 60 _playSample three 788_Steven_Phillips_03 frontend 3;
#X obj 0 80 _playSample four 789_Steven_Phillips_04 frontend 4;
#X obj 0 100 _playSample move_1 13254__ianhall__splash frontend 5;
#X obj 0 120 _playSample move_2 16243__ltibbits__china_oriental_trash_18_high_vol
frontend 6;
#X obj 0 140 _playSample hip_bop_1 38156__JCambs1990__#29520A92 frontend
7;
#X obj 0 160 _playSample hip_bop_2 38156__JCambs1990__#29520A9 frontend
8;
#X obj 0 180 _playSample h1 9361__lancelottjone#29791 frontend 9;
#X obj 0 200 _playSample h2 9361__lancelottjone#29792 frontend 10;
#X obj 0 220 _playSample h3 9361__lancelottjone#29793 frontend 11;
#X obj 0 240 _playSample h4 9361__lancelottjone#29794 frontend 12;
#X obj 0 260 _playSample h5 9361__lancelottjone#29795 frontend 13;
#X obj 0 280 _playSample h6 9361__lancelottjone#29796 frontend 14;
#X obj 0 300 _playSample h7 9361__lancelottjone#29797 frontend 15;
#X obj 0 0 _playSample one 786_Steven_Phillips_01 frontend 0;
#X obj 0 40 _playSample two 787_Steven_Phillips_02 frontend 2;
#X obj 0 60 _playSample three 788_Steven_Phillips_03 frontend 3;
#X obj 0 80 _playSample four 789_Steven_Phillips_04 frontend 4;
#X obj 0 100 _playSample move_1 13254__ianhall__splash frontend 5;
#X obj 0 120 _playSample move_2 16243__ltibbits__china_oriental_trash_18_high_vol
frontend 6;
#X obj 0 140 _playSample hip_bop_1 38156__JCambs1990__#29520A92 frontend
7;
#X obj 0 160 _playSample hip_bop_2 38156__JCambs1990__#29520A9 frontend
8;
#X obj 0 180 _playSample h1 9361__lancelottjone#29791 frontend 9;
#X obj 0 200 _playSample h2 9361__lancelottjone#29792 frontend 10;
#X obj 0 220 _playSample h3 9361__lancelottjone#29793 frontend 11;
#X obj 0 240 _playSample h4 9361__lancelottjone#29794 frontend 12;
#X obj 0 260 _playSample h5 9361__lancelottjone#29795 frontend 13;
#X obj 0 280 _playSample h6 9361__lancelottjone#29796 frontend 14;
#X obj 0 300 _playSample h7 9361__lancelottjone#29797 frontend 15;
#X obj 0 0 _playSample one 786_Steven_Phillips_01 frontend 0;
#X obj 0 40 _playSample two 787_Steven_Phillips_02 frontend 2;
#X obj 0 60 _playSample three 788_Steven_Phillips_03 frontend 3;
#X obj 0 80 _playSample four 789_Steven_Phillips_04 frontend 4;
#X obj 0 100 _playSample move_1 13254__ianhall__splash frontend 5;
#X obj 0 120 _playSample move_2 16243__ltibbits__china_oriental_trash_18_high_vol
frontend 6;
#X obj 0 140 _playSample hip_bop_1 38156__JCambs1990__#29520A92 frontend
7;
#X obj 0 160 _playSample hip_bop_2 38156__JCambs1990__#29520A9 frontend
8;
#X obj 0 180 _playSample h1 9361__lancelottjone#29791 frontend 9;
#X obj 0 200 _playSample h2 9361__lancelottjone#29792 frontend 10;
#X obj 0 220 _playSample h3 9361__lancelottjone#29793 frontend 11;
#X obj 0 240 _playSample h4 9361__lancelottjone#29794 frontend 12;
#X obj 0 260 _playSample h5 9361__lancelottjone#29795 frontend 13;
#X obj 0 280 _playSample h6 9361__lancelottjone#29796 frontend 14;
#X obj 0 300 _playSample h7 9361__lancelottjone#29797 frontend 15;
#X restore 252 240 pd SampleSubPatch;
#X obj 62 149 delay 1000;
#X obj 62 175 bng 15 250 50 0 empty empty empty 0 -6 0 8 -262144 -1
-1;
#X text 258 266 the created objects;
#X text 250 255 subpatch which holds;
#X obj 140 127 r nextLine;
#X obj 62 193 s nextLine;
#X obj 97 228 / 1;
#X obj 97 268 * 20;
#X msg 61 326 \; pd-SampleSubPatch obj \$2 \$1 _playSample \$6 \$5
\$4 \$3 \;;
#X obj 62 94 r done;
#X text 112 310 create _playSample objects in SampleSubPatch;
#X obj 174 169 s load_samples;
#X obj 316 157 loadbang;
#X msg 316 178 \; pd dsp 1;
#X text 304 141 turn audio on;
#X msg 131 92 read samplelist.txt cr \, rewind \; done bang;
#X obj 132 60 change;
#X msg 132 40 1;
#N canvas 0 22 450 300 numbers 0;
#X obj 235 31 inlet;
#X obj 171 77 OSCroute /1 /2 /3 /4;
#X msg 248 143 one-shot \$1;
#X msg 249 121 1;
#X msg 157 145 one-shot \$1;
#X obj 157 165 s one_event;
#X msg 157 123 1;
#X msg 157 145 one-shot \$1;
#X obj 157 165 s one_event;
#X msg 157 123 1;
#X msg 283 217 one-shot \$1;
#X msg 283 195 1;
#X msg 160 225 one-shot \$1;
#X msg 165 198 1;
#X obj 161 248 s two_event;
#X obj 249 170 s three_event;
#X obj 283 237 s four_event;
#X connect 0 0 1 0;
#X connect 1 0 6 0;
#X connect 1 1 13 0;
#X connect 1 2 3 0;
#X connect 1 3 11 0;
#X connect 2 0 15 0;
#X connect 3 0 2 0;
#X connect 4 0 5 0;
#X connect 6 0 4 0;
#X connect 7 0 8 0;
#X connect 9 0 7 0;
#X connect 10 0 16 0;
#X connect 11 0 10 0;
#X connect 12 0 14 0;
#X connect 13 0 12 0;
#X restore 558 108 pd numbers;
#N canvas 0 22 552 473 sinescale 0;
#X obj 183 17 inlet;
#X obj 135 63 OSCroute /scale /intersect /toggle;
#X obj 124 100 * 1000;
#X obj 227 153 line~;
#X obj 185 213 *~;
#X obj 156 177 osc~;
#X obj 286 156 line~;
#X obj 226 245 *~;
#X obj 220 290 dac~;
#X obj 144 151 sig~;
#X connect 0 0 1 0;
#X connect 1 0 2 0;
#X connect 1 1 3 0;
#X connect 1 2 6 0;
#X connect 2 0 9 0;
#X connect 3 0 4 0;
#X connect 4 0 7 1;
#X connect 5 0 4 1;
#X connect 6 0 7 0;
#X connect 7 0 8 0;
#X connect 7 0 8 1;
#X connect 9 0 5 0;
#X restore 625 133 pd sinescale;
#N canvas 0 22 450 300 bells 0;
#X obj 84 19 inlet;
#X obj 72 63 OSCroute /h1 /h2 /h3 /h4 /h5 /h6 /h7;
#X msg 95 152 one-shot \$1;
#X msg 96 125 1;
#X msg 175 156 one-shot \$1;
#X msg 176 129 1;
#X msg 261 150 one-shot \$1;
#X msg 262 123 1;
#X msg 145 242 one-shot \$1;
#X msg 146 215 1;
#X msg 234 242 one-shot \$1;
#X msg 235 215 1;
#X msg 317 241 one-shot \$1;
#X msg 318 214 1;
#X msg 19 151 one-shot \$1;
#X msg 20 124 1;
#X obj 19 176 s h1_event;
#X obj 95 177 s h2_event;
#X obj 175 181 s h3_event;
#X obj 260 175 s h4_event;
#X obj 146 267 s h5_event;
#X obj 234 267 s h6_event;
#X obj 317 266 s h7_event;
#X connect 0 0 1 0;
#X connect 1 0 15 0;
#X connect 1 1 3 0;
#X connect 1 2 5 0;
#X connect 1 3 7 0;
#X connect 1 4 9 0;
#X connect 1 5 11 0;
#X connect 1 6 13 0;
#X connect 2 0 17 0;
#X connect 3 0 2 0;
#X connect 4 0 18 0;
#X connect 5 0 4 0;
#X connect 6 0 19 0;
#X connect 7 0 6 0;
#X connect 8 0 20 0;
#X connect 9 0 8 0;
#X connect 10 0 21 0;
#X connect 11 0 10 0;
#X connect 12 0 22 0;
#X connect 13 0 12 0;
#X connect 14 0 16 0;
#X connect 15 0 14 0;
#X restore 520 141 pd bells;
#N canvas 0 22 450 300 drumset 1;
#X obj 40 40 inlet;
#X msg 327 142 one-shot \$1;
#X msg 327 112 1;
#X obj 329 176 s move_2_event;
#X msg 82 137 one-shot \$1;
#X msg 81 105 1;
#X obj 82 166 s hip_bop_1_event;
#X msg 201 174 one-shot \$1;
#X msg 202 144 1;
#X obj 138 71 OSCroute /left_hip /right_hip /front /back;
#X obj 317 270 s move_1_event;
#X obj 198 199 s hip_bop_2_event;
#X msg 314 214 1;
#X msg 317 249 one-shot \$1;
#X connect 0 0 9 0;
#X connect 1 0 3 0;
#X connect 2 0 1 0;
#X connect 4 0 6 0;
#X connect 5 0 4 0;
#X connect 7 0 11 0;
#X connect 8 0 7 0;
#X connect 9 0 5 0;
#X connect 9 1 8 0;
#X connect 9 2 12 0;
#X connect 9 3 2 0;
#X connect 12 0 13 0;
#X connect 13 0 10 0;
#X restore 456 108 pd drumset;
#N canvas 0 22 602 466 sinescale2 1;
#X obj 174 56 OSCroute /scale /toggle;
#X obj 134 216 * 1000;
#X obj 249 291 osc~;
#X obj 182 20 inlet;
#X obj 247 261 sig~;
#X obj 325 233 line~;
#X obj 270 335 *~;
#X obj 256 383 dac~;
#X obj 47 96 expr $f1 \; if ($f1<.5 \, $f1 \, 0) \; if ($f1>=.5 \,
1-$f1 \, 0);
#X obj 362 111 expr $f1 \; if ($f1<.5 \, 0.5 - $f1 \, 0) \; if ($f1>=.5
\, $f1- 0.5 \, 0);
#X obj 138 181 +;
#X obj 471 181 +;
#X obj 423 345 *~;
#X obj 424 378 dac~;
#X obj 476 253 phasor~;
#X obj 464 299 expr~ $v1 > 0.5;
#X obj 475 213 * 1000;
#X connect 0 0 8 0;
#X connect 0 0 9 0;
#X connect 0 1 5 0;
#X connect 1 0 4 0;
#X connect 2 0 6 0;
#X connect 3 0 0 0;
#X connect 4 0 2 0;
#X connect 5 0 6 1;
#X connect 5 0 12 0;
#X connect 6 0 7 0;
#X connect 6 0 7 1;
#X connect 8 1 10 0;
#X connect 8 2 10 1;
#X connect 9 1 11 0;
#X connect 9 2 11 1;
#X connect 10 0 1 0;
#X connect 11 0 16 0;
#X connect 12 0 13 0;
#X connect 12 0 13 1;
#X connect 14 0 15 0;
#X connect 15 0 12 1;
#X connect 16 0 14 0;
#X restore 663 107 pd sinescale2;
#X obj 512 50 OSCroute /1 /2 /plus /minus /a /up /track /right;
#N canvas 0 22 924 747 track 1;
#X obj 63 -19 inlet;
#X obj 63 25 OSCroute /playpause /scratch;
#N canvas 0 22 450 300 (subpatch) 0;
#X array loop 75600 float 2;
#X coords 0 1 75600 -1 200 140 1;
#X restore -237 445 graph;
#X obj 108 73 OSCroute /scale /toggle;
#X obj 328 80 tgl 15 0 empty empty empty 0 -6 0 10 -262144 -1 -1 0
1;
#X obj 264 -21 loadbang;
#X obj 264 44 soundfiler;
#X msg 264 13 read -resize sfx/9361__lancelottjones__glassloop.wav
loop;
#X obj 296 141 tgl 15 0 empty empty empty 17 7 0 10 -262144 -1 -1 1
1;
#X obj 372 200 &&;
#X obj 310 396 f;
#X obj 311 495 pack f f;
#X obj 233 468 +;
#X obj 311 434 t f f;
#X obj 311 544 vline~;
#X obj 307 633 dac~;
#X obj 269 395 +;
#X obj 297 105 == 0;
#X obj 33 109 == 1;
#X text 405 202 straight play control;
#X text -304 200 scratch control-- turns off when play control turns
off;
#X obj 95 297 -;
#X obj 34 139 tgl 15 0 empty empty empty 17 7 0 10 -262144 -1 -1 0
1;
#X text -286 53 /scratch/scale gives a number between 0 and 1--turn
of a dial;
#X text -284 21 /scratch/toggle gives a 0 or 1--scratching/playing
;
#X text -283 -8 /playpause toggles betweeen playing and pausing;
#X obj 37 166 metro 50;
#X obj 118 262 pipe 50;
#X msg 311 518 \$1 \, \$2 50;
#X obj 381 288 metro 50;
#X obj 278 333 * 2205;
#X obj 155 325 * 79380;
#X text -86 325 1 turn of an lp: (60/(33 1/3))*44100 =;
#X obj 233 -15 bng 15 250 50 0 empty empty empty 17 7 0 10 -262144
-1 -1;
#N canvas 0 22 450 300 cycle% 1;
#X obj 157 24 inlet;
#X obj 254 27 inlet;
#X obj 288 226 outlet;
#X text 223 92 comment;
#X obj 205 81 %;
#X obj 199 116 expr $f1 \; if ($f1> 0 \, $f1 \, 0) \; if ($f1<=0 \,
$f1+$f2 \, 0);
#X obj 287 186 +;
#X connect 0 0 4 0;
#X connect 1 0 4 1;
#X connect 1 0 5 1;
#X connect 4 0 5 0;
#X connect 5 1 6 0;
#X connect 5 2 6 1;
#X connect 6 0 2 0;
#X restore 193 395 pd cycle%;
#X floatatom 157 457 5 0 0 0 - - -;
#X obj 72 245 f;
#X obj 119 216 f;
#X obj 311 582 tabread4~ loop;
#X connect 0 0 1 0;
#X connect 1 0 4 0;
#X connect 1 1 3 0;
#X connect 3 0 37 1;
#X connect 3 0 36 1;
#X connect 3 1 17 0;
#X connect 3 1 18 0;
#X connect 4 0 9 0;
#X connect 5 0 7 0;
#X connect 6 0 34 1;
#X connect 7 0 6 0;
#X connect 8 0 9 1;
#X connect 8 0 30 0;
#X connect 9 0 29 0;
#X connect 10 0 13 0;
#X connect 10 0 16 0;
#X connect 11 0 28 0;
#X connect 12 0 11 1;
#X connect 13 0 11 0;
#X connect 13 1 12 0;
#X connect 14 0 38 0;
#X connect 16 0 34 0;
#X connect 17 0 8 0;
#X connect 18 0 22 0;
#X connect 21 0 31 0;
#X connect 22 0 26 0;
#X connect 26 0 36 0;
#X connect 26 0 37 0;
#X connect 27 0 21 1;
#X connect 28 0 14 0;
#X connect 29 0 10 0;
#X connect 30 0 12 1;
#X connect 30 0 16 1;
#X connect 31 0 16 1;
#X connect 31 0 12 1;
#X connect 33 0 7 0;
#X connect 34 0 10 1;
#X connect 34 0 35 0;
#X connect 36 0 21 0;
#X connect 37 0 27 0;
#X connect 38 0 15 0;
#X connect 38 0 15 1;
#X restore 730 143 pd track;
#X connect 0 0 30 0;
#X connect 1 0 24 0;
#X connect 2 0 3 0;
#X connect 2 0 8 0;
#X connect 2 1 18 0;
#X connect 3 0 5 2;
#X connect 3 0 13 0;
#X connect 3 1 5 3;
#X connect 3 2 5 4;
#X connect 3 3 5 5;
#X connect 3 4 5 6;
#X connect 4 0 14 0;
#X connect 5 0 15 0;
#X connect 7 0 8 0;
#X connect 8 0 12 0;
#X connect 11 0 2 0;
#X connect 13 0 4 0;
#X connect 14 0 5 0;
#X connect 16 0 7 0;
#X connect 19 0 20 0;
#X connect 22 0 2 0;
#X connect 23 0 22 0;
#X connect 24 0 23 0;
#X connect 30 0 28 0;
#X connect 30 1 27 0;
#X connect 30 2 25 0;
#X connect 30 3 26 0;
#X connect 30 4 29 0;
#X connect 30 6 31 0;
