#N canvas 336 109 438 502 10;
#X obj 99 199 textfile;
#X obj 99 239 unpack 0 s s s 0 0 0 0 0;
#X obj 2 2 cnv 60 400 60 empty empty Sample_Bank_Loading 10 20 1 24
-233017 -66577 0;
#X obj 65 298 int;
#X obj 65 338 pack 0 0 0 s s s 0;
#N canvas 376 135 283 573 SampleSubPatch 0;
#X obj 0 0 _playSample test test1 frontend 0;
#X obj 0 20 _playSample foot0 footstep0 game 1;
#X obj 0 40 _playSample foot1 footstep1 game 2;
#X obj 0 60 _playSample foot2 footstep2 game 3;
#X obj 0 80 _playSample foot3 footstep3 game 4;
#X obj 0 0 _playSample test test1 frontend 0;
#X obj 0 20 _playSample foot0 footstep0 game 1;
#X obj 0 40 _playSample foot1 footstep1 game 2;
#X obj 0 60 _playSample foot2 footstep2 game 3;
#X obj 0 80 _playSample foot3 footstep3 game 4;
#X restore 220 290 pd SampleSubPatch;
#X obj 30 199 delay 1000;
#X obj 30 225 bng 15 250 50 0 empty empty empty 0 -6 0 8 -262144 -1
-1;
#X text 226 316 the created objects;
#X text 218 305 subpatch which holds;
#X obj 108 177 r nextLine;
#X obj 30 243 s nextLine;
#X obj 65 278 / 1;
#X obj 65 318 * 20;
#X msg 29 376 \; pd-SampleSubPatch obj \$2 \$1 _playSample \$6 \$5
\$4 \$3 \;;
#X msg 99 142 read spreadsheet/samplelist.txt cr \, rewind \; done
bang;
#X obj 30 144 r done;
#X text 80 360 create _playSample objects in SampleSubPatch;
#X obj 142 219 s load_samples;
#X obj 284 207 loadbang;
#X msg 284 228 \; pd dsp 1;
#X obj 99 121 change;
#X msg 99 101 1;
#X text 272 191 turn audio on;
#X obj 175 118 tgl 20 0 0$-null empty Bank_Loaded 0 -6 1 8 -241291
-1 -1 0 1;
#X obj 99 72 r start;
#X connect 0 0 1 0;
#X connect 0 0 7 0;
#X connect 0 1 18 0;
#X connect 1 0 4 2;
#X connect 1 0 12 0;
#X connect 1 1 4 3;
#X connect 1 2 4 4;
#X connect 1 3 4 5;
#X connect 1 4 4 6;
#X connect 3 0 13 0;
#X connect 4 0 14 0;
#X connect 6 0 7 0;
#X connect 7 0 11 0;
#X connect 10 0 0 0;
#X connect 12 0 3 0;
#X connect 13 0 4 0;
#X connect 15 0 0 0;
#X connect 16 0 6 0;
#X connect 19 0 20 0;
#X connect 21 0 15 0;
#X connect 22 0 21 0;
#X connect 22 0 24 0;
#X connect 25 0 22 0;
