#N canvas 572 184 429 328 10;
#X msg 3 132 one-shot \$1;
#X obj 107 91 tgl 15 0 empty empty test_looping 0 -8 1 10 -258699 -1
-1 0 1.68;
#X obj 107 109 int;
#X msg 107 129 looping \$1;
#X msg 4 215 pitch \$1;
#X obj 4 196 nbx 5 14 -1e+37 1e+37 0 1 empty empty test_pitch 0 -9
1 10 -44926 -1 -1 0.75 256;
#X obj 2 1 cnv 40 400 40 empty empty Sample_Bank_Tester 40 20 1 16
-233017 -66577 0;
#X obj 3 91 bng 15 250 50 0 empty empty test_one_shot 0 -8 1 10 -258699
-1 -1;
#X obj 4 236 s test_event;
#X obj 273 146 random 4;
#X obj 272 211 makefilename foot%d;
#X obj 206 147 + 1;
#X obj 206 167 % 4;
#X obj 273 165 t 0 0;
#X obj 272 231 pack s s f;
#X obj 206 187 makefilename foot%d;
#X obj 273 69 tgl 15 0 empty empty footsteps 0 -8 1 10 -258699 -1 -1
0 1.68;
#X obj 335 149 random 50;
#X obj 335 169 / 400;
#X obj 206 127 pipe 0;
#X obj 335 189 + 0.85;
#X obj 206 105 random 40;
#X obj 273 88 metro 500;
#X msg 239 253 \; \$1_event pitch \$3 \; \$1_event one-shot \$3 \;
\$2_event one-shot \$3 \;;
#X obj 273 126 t b b;
#X obj 3 152 s one_event;
#X msg 3 110 1;
#X obj 107 150 s one_event;
#X connect 0 0 25 0;
#X connect 1 0 2 0;
#X connect 2 0 3 0;
#X connect 3 0 27 0;
#X connect 4 0 8 0;
#X connect 5 0 4 0;
#X connect 7 0 26 0;
#X connect 9 0 13 0;
#X connect 10 0 14 1;
#X connect 11 0 12 0;
#X connect 12 0 15 0;
#X connect 13 0 19 0;
#X connect 13 1 10 0;
#X connect 14 0 23 0;
#X connect 15 0 14 0;
#X connect 16 0 22 0;
#X connect 17 0 18 0;
#X connect 18 0 20 0;
#X connect 19 0 11 0;
#X connect 20 0 14 2;
#X connect 21 0 19 1;
#X connect 22 0 21 0;
#X connect 22 0 24 0;
#X connect 24 0 9 0;
#X connect 24 1 17 0;
#X connect 26 0 0 0;
